/* XPM */
static char * sheet_xpm[] = {
"232 48 25 1",
" 	c None",
".	c #FF00FF",
"+	c #FCFCFC",
"@	c #A80020",
"#	c #0000BC",
"$	c #503000",
"%	c #006800",
"&	c #7C7C7C",
"*	c #7A5F8C",
"=	c #6A6526",
"-	c #005E62",
";	c #F8B8F8",
">	c #E40058",
",	c #3CBCFC",
"'	c #0078F8",
")	c #FFFFFF",
"!	c #C3DB51",
"~	c #B8F8B8",
"{	c #00A800",
"]	c #BCBCBC",
"^	c #D19BF5",
"/	c #9539DE",
"(	c #C3BA51",
"_	c #B56500",
":	c #50FFFF",
"........................................................................................................................................................................................................................................",
".....++++++++++++++.......++++...+++++....++++...++++....++++++..++++++...+++++..++..++..++++++..++++++..++..++..++......++...++.++..++...++++...+++++.....++....+++++....+++++..++++++..++..++..++..++..++...++.++..++..++..++..++++++.",
"...++++++++++++++++++....++++++..++++++..++++++..+++++...++++++..++++++..++++++..++..++..++++++..++++++..++.+++..++......+++.+++.++..++..++++++..++++++..++++++..++++++..++++++..++++++..++..++..++..++..++...++.++..++..++..++..++++++.",
"..+++..............+++...++..++..++..++..++..++..++.+++..++......++......++......++..++....++.......++...+++++...++......+++++++.+++.++..++..++..++..++..++..++..++..++..++........++....++..++..++..++..++.+.++.++++++..++..++......++.",
"..++................++...++++++..+++++...++......++..++..++++++..++++++..++.+++..++++++....++.......++...+++++...++......+++++++.++++++..++..++..++++++..++..++..+++++....++++.....++....++..++..++..++..+++++++..++++...++++++...++++..",
".++..................++..++++++..++..++..++..++..++.+++..++......++......++..++..++..++....++....++.++...++.+++..++......++.+.++.++.+++..++..++..+++++...++.+++..++++++......++....++....++++++..++..++..+++++++.++++++...++++...++.....",
".++..................++..++..++..++++++..++++++..+++++...++++++..++......++++++..++..++..++++++..+++++...++..++..++++++..++...++.++..++..++++++..++......+++++...++..++..++++++....++....++++++...++++...+++.+++.++..++....++....++++++.",
".++..................++..++..++..+++++....++++...++++....++++++..++.......++++...++..++..++++++...+++....++..++..++++++..++...++.++..++...++++...++.......+++++..++..++..+++++.....++.....++++.....++....++...++.++..++....++....++++++.",
".++..................++.................................................................................................................................................................................................................",
".++..................++...++++.....++.....++++...+++++...++..++..++++++...+++++..+++++....++++....++++.....++...........................................................................................................................",
".++..................++..++++++...+++....++++++..++++++..++..++..++++++..++++++..++++++..++++++..++++++....++...........................................................................................................................",
".++..................++..+++.++...+++....++..++......++..++..++..++......++..........++..++..++..++..++....++...........................................................................................................................",
".++..................++..++..++....++......++++..++++++..++++++..+++++...++++++.....++....++++...++++++....++...........................................................................................................................",
".++..................++..++.+++....++.....+++........++...+++++.....+++..++..++.....++...++..++...+++++.................................................................................................................................",
".++..................++..++++++..++++++..++++++..++++++......++..++++++..++++++.....++...++++++......++....++......++...................................................................................................................",
".++..................++...++++...++++++..++++++..+++++.......++..+++++....++++......++....++++.......++....++......++...................................................................................................................",
".++..................++..@@@@@@..######..$$$$$$..%%%%%%..&&&&&&..******..======..------.................................................................................................................................................",
".++..................++.@;;;>>;@#,,,'',#$)))!!)$%~~~{{~%&+++]]+&*^^^//^*=(((__(=-)))::)-................................................................................................................................................",
".++..................++.@>>>>>>@#''''''#$!!!!!!$%{{{{{{%&]]]]]]&*//////*=______=-::::::-................................................................................................................................................",
"..++................++..@>>>>>;@#''''',#$!!!!!)$%{{{{{~%&]]]]]+&*/////^*=_____(=-:::::)-................................................................................................................................................",
"..+++..............+++..@>>>>>;@#''''',#$!!!!!)$%{{{{{~%&]]]]]+&*/////^*=_____(=-:::::)-................................................................................................................................................",
"...++++++++++++++++++...@>>>>>>@#''''''#$!!!!!!$%{{{{{{%&]]]]]]&*//////*=______=-::::::-................................................................................................................................................",
".....++++++++++++++.....@>;>;;;@#',',,,#$!)!)))$%{~{~~~%&]+]+++&*/^/^^^*=_(_(((=-:):)))-................................................................................................................................................",
".........................@@@@@@..######..$$$$$$..%%%%%%..&&&&&&..******..======..------.................................................................................................................................................",
"........................................................................................................................................................................................................................................",
".....++++++++++++++........+]......]+......]+...........................................................................................................................................................................................",
"...++++++++++++++++++.....+&&].....]&+....]&+...........................................................................................................................................................................................",
"..+++&]&]&]&]&]&]&]+++...+&&&&]....]&&+..]&&]...........................................................................................................................................................................................",
"..++&].].].].].].].]++...]]]]++....]&&]..+&&]...........................................................................................................................................................................................",
".++&].&.&.&.&.&.&.].]++............+&]....+&]...........................................................................................................................................................................................",
".++].&.............]&++............+]......+]...........................................................................................................................................................................................",
".++&].............&.]++.................................................................................................................................................................................................................",
".++].&.............]&++.................................................................................................................................................................................................................",
".++&].............&.]++.................................................................................................................................................................................................................",
".++].&.............]&++.................................................................................................................................................................................................................",
".++&].............&.]++.................................................................................................................................................................................................................",
".++].&.............]&++.................................................................................................................................................................................................................",
".++&].............&.]++.................................................................................................................................................................................................................",
".++].&.............]&++.................................................................................................................................................................................................................",
".++&].............&.]++.................................................................................................................................................................................................................",
".++].&.............]&++.................................................................................................................................................................................................................",
".++&].............].]++.................................................................................................................................................................................................................",
".++]&].&.&.&.&.&.].]&++.................................................................................................................................................................................................................",
"..++]&].].].].].].]&++..................................................................................................................................................................................................................",
"..+++]&]&]&]&]&]&]&+++..................................................................................................................................................................................................................",
"...++++++++++++++++++...................................................................................................................................................................................................................",
".....++++++++++++++.....................................................................................................................................................................................................................",
"........................................................................................................................................................................................................................................"};
