/* XPM */
static char * E:\Source\Portfolio\Blocks\assets\sheet_xpm[] = {
"232 48 17 1",
" 	c None",
".	c #FF00FF",
"+	c #FCFCFC",
"@	c #A80020",
"#	c #0000BC",
"$	c #503000",
"%	c #006800",
"&	c #7C7C7C",
"*	c #F8B8F8",
"=	c #E40058",
"-	c #3CBCFC",
";	c #0078F8",
">	c #F8D878",
",	c #AC7C00",
"'	c #B8F8B8",
")	c #00A800",
"!	c #BCBCBC",
"........................................................................................................................................................................................................................................",
".....++++++++++++++.......++++...+++++....++++...++++....++++++..++++++...+++++..++..++..++++++..++++++..++..++..++......++...++.++..++...++++...+++++.....++....+++++....+++++..++++++..++..++..++..++..++...++.++..++..++..++..++++++.",
"...++++++++++++++++++....++++++..++++++..++++++..+++++...++++++..++++++..++++++..++..++..++++++..++++++..++.+++..++......+++.+++.++..++..++++++..++++++..++++++..++++++..++++++..++++++..++..++..++..++..++...++.++..++..++..++..++++++.",
"..+++..............+++...++..++..++..++..++..++..++.+++..++......++......++......++..++....++.......++...+++++...++......+++++++.+++.++..++..++..++..++..++..++..++..++..++........++....++..++..++..++..++.+.++.++++++..++..++......++.",
"..++................++...++++++..+++++...++......++..++..++++++..++++++..++.+++..++++++....++.......++...+++++...++......+++++++.++++++..++..++..++++++..++..++..+++++....++++.....++....++..++..++..++..+++++++..++++...++++++...++++..",
".++..................++..++++++..++..++..++..++..++.+++..++......++......++..++..++..++....++....++.++...++.+++..++......++.+.++.++.+++..++..++..+++++...++.+++..++++++......++....++....++++++..++..++..+++++++.++++++...++++...++.....",
".++..................++..++..++..++++++..++++++..+++++...++++++..++......++++++..++..++..++++++..+++++...++..++..++++++..++...++.++..++..++++++..++......+++++...++..++..++++++....++....++++++...++++...+++.+++.++..++....++....++++++.",
".++..................++..++..++..+++++....++++...++++....++++++..++.......++++...++..++..++++++...+++....++..++..++++++..++...++.++..++...++++...++.......+++++..++..++..+++++.....++.....++++.....++....++...++.++..++....++....++++++.",
".++..................++.................................................................................................................................................................................................................",
".++..................++...++++.....++.....++++...++++++..++..++..++++++...+++++..++++++...++++....++++..................................................................................................................................",
".++..................++..++++++...+++....++++++..++++++..++..++..++++++..++++++..++++++..++++++..++++++.................................................................................................................................",
".++..................++..+++.++...+++....++..++......++..++..++..++......++..........++..++..++..++..++.................................................................................................................................",
".++..................++..++++++....++......++++..++++++..++++++..++++++..++++++.....++....++++...++++++.................................................................................................................................",
".++..................++..++.+++....++.....+++........++..++++++.....+++..++..++.....++...++..++...+++++.................................................................................................................................",
".++..................++..++++++..++++++..++++++..++++++......++..++++++..++++++.....++...++++++......++.................................................................................................................................",
".++..................++...++++...++++++..++++++..++++++......++..+++++....++++......++....++++.......++.................................................................................................................................",
".++..................++..@@@@@@..######..$$$$$$..%%%%%%..&&&&&&.........................................................................................................................................................................",
".++..................++.@***==*@#---;;-#$>>>,,>$%'''))'%&+++!!+&........................................................................................................................................................................",
".++..................++.@======@#;;;;;;#$,,,,,,$%))))))%&!!!!!!&........................................................................................................................................................................",
"..++................++..@=====*@#;;;;;-#$,,,,,>$%)))))'%&!!!!!+&........................................................................................................................................................................",
"..+++..............+++..@=====*@#;;;;;-#$,,,,,>$%)))))'%&!!!!!+&........................................................................................................................................................................",
"...++++++++++++++++++...@======@#;;;;;;#$,,,,,,$%))))))%&!!!!!!&........................................................................................................................................................................",
".....++++++++++++++.....@=*=***@#;-;---#$,>,>>>$%)')'''%&!+!+++&........................................................................................................................................................................",
".........................@@@@@@..######..$$$$$$..%%%%%%..&&&&&&.........................................................................................................................................................................",
"........................................................................................................................................................................................................................................",
".....++++++++++++++........+!...........................................................................................................................................................................................................",
"...++++++++++++++++++.....+&&!..........................................................................................................................................................................................................",
"..+++&!&!&!&!&!&!&!+++...+&&&&!.........................................................................................................................................................................................................",
"..++&!.!.!.!.!.!.!.!++...!!!!++.........................................................................................................................................................................................................",
".++&!.&.&.&.&.&.&.!.!++.................................................................................................................................................................................................................",
".++!.&.............!&++.................................................................................................................................................................................................................",
".++&!.............&.!++.................................................................................................................................................................................................................",
".++!.&.............!&++.................................................................................................................................................................................................................",
".++&!.............&.!++.................................................................................................................................................................................................................",
".++!.&.............!&++.................................................................................................................................................................................................................",
".++&!.............&.!++.................................................................................................................................................................................................................",
".++!.&.............!&++.................................................................................................................................................................................................................",
".++&!.............&.!++.................................................................................................................................................................................................................",
".++!.&.............!&++.................................................................................................................................................................................................................",
".++&!.............&.!++.................................................................................................................................................................................................................",
".++!.&.............!&++.................................................................................................................................................................................................................",
".++&!.............!.!++.................................................................................................................................................................................................................",
".++!&!.&.&.&.&.&.!.!&++.................................................................................................................................................................................................................",
"..++!&!.!.!.!.!.!.!&++..................................................................................................................................................................................................................",
"..+++!&!&!&!&!&!&!&+++..................................................................................................................................................................................................................",
"...++++++++++++++++++...................................................................................................................................................................................................................",
".....++++++++++++++.....................................................................................................................................................................................................................",
"........................................................................................................................................................................................................................................"};
